<svg version="1.2" baseProfile="tiny-ps" xmlns="http://www.w3.org/2000/svg" viewBox="0 0 1310 196" width="1310" height="196">
	<title>New Project</title>
	<style>
		tspan { white-space:pre }
	</style>
	<path fill="#00acad" aria-label="pcpartfinder"  d="M36.6 196L0.2 196L0.2 45.6L29 45.6L29 93.2L25.8 93.2Q26.4 77 32.2 65.6Q38.2 54.2 48.4 48.4Q58.6 42.4 71.8 42.4Q83.2 42.4 92.4 46.6Q101.6 50.6 108.2 58.2Q114.8 65.6 118.2 75.8Q121.8 86 121.8 98.2L121.8 103Q121.8 115.2 118.6 125.6Q115.4 135.8 109 143.6Q102.6 151.2 93.2 155.4Q84 159.6 72 159.6Q59.2 159.6 49.4 154.6Q39.6 149.4 33.8 139.2Q28.2 128.8 27.8 113.2L36.6 124L36.6 196ZM61 129.6Q68.2 129.6 73.6 126Q79.2 122.2 82.2 115.6Q85.4 109 85.4 100.6Q85.4 92 82.2 85.8Q79.2 79.4 73.8 76Q68.4 72.4 61 72.4Q54.4 72.4 48.6 75.4Q43 78.4 39.4 84.2Q35.8 90 35.8 98.2L35.8 105Q35.8 112.8 39.6 118.4Q43.4 123.8 49.2 126.8Q55 129.6 61 129.6ZM192.2 160Q177.8 160 167.2 155.4Q156.6 150.6 149.4 142.6Q142.4 134.6 138.8 124.4Q135.4 114.2 135.4 103.2L135.4 99.2Q135.4 87.6 139 77.2Q142.8 66.8 150 58.8Q157.2 50.8 167.8 46.2Q178.4 41.6 192.2 41.6Q207.4 41.6 219 47.6Q230.6 53.6 237.4 64.2Q244.4 74.6 245.2 88.2L209.6 88.2Q209 81.6 204.6 77Q200.4 72.4 192.2 72.4Q185.2 72.4 180.6 76Q176.2 79.6 174 86Q171.8 92.4 171.8 101.2Q171.8 109.4 173.6 115.8Q175.6 122.2 180 125.8Q184.6 129.2 192.2 129.2Q197.8 129.2 201.6 127.2Q205.4 125.2 207.6 121.6Q209.8 117.8 210.4 112.8L246 112.8Q245.2 126.8 238 137.4Q231 148 219.2 154Q207.4 160 192.2 160ZM300.8 196L264.4 196L264.4 45.6L293.2 45.6L293.2 93.2L290 93.2Q290.6 77 296.4 65.6Q302.4 54.2 312.6 48.4Q322.8 42.4 336 42.4Q347.4 42.4 356.6 46.6Q365.8 50.6 372.4 58.2Q379 65.6 382.4 75.8Q386 86 386 98.2L386 103Q386 115.2 382.8 125.6Q379.6 135.8 373.2 143.6Q366.8 151.2 357.4 155.4Q348.2 159.6 336.2 159.6Q323.4 159.6 313.6 154.6Q303.8 149.4 298 139.2Q292.4 128.8 292 113.2L300.8 124L300.8 196ZM325.2 129.6Q332.4 129.6 337.8 126Q343.4 122.2 346.4 115.6Q349.6 109 349.6 100.6Q349.6 92 346.4 85.8Q343.4 79.4 338 76Q332.6 72.4 325.2 72.4Q318.6 72.4 312.8 75.4Q307.2 78.4 303.6 84.2Q300 90 300 98.2L300 105Q300 112.8 303.8 118.4Q307.6 123.8 313.4 126.8Q319.2 129.6 325.2 129.6ZM501.6 156L472.8 156L472.8 123.6L466.8 123.6L466.8 89Q466.8 81.4 463.2 77.8Q459.8 74 451.8 74Q448 74 440.6 74.2Q433.2 74.4 425 74.8Q416.8 75.2 410 75.6L410 45.2Q414.8 44.8 421.4 44.4Q428 44 435 43.8Q442.2 43.6 448.2 43.6Q465.2 43.6 477 48.6Q489 53.6 495.2 63.6Q501.6 73.6 501.6 89L501.6 156ZM437.8 158.8Q426.2 158.8 417.2 154.6Q408.2 150.4 403 142.6Q398 134.6 398 123.6Q398 111.2 404.6 103.6Q411.2 95.8 422.8 92.2Q434.4 88.6 449.4 88.6L470.8 88.6L470.8 107.4L449.4 107.4Q442 107.4 438 111.2Q434 114.8 434 121Q434 127 438 130.8Q442 134.4 449.4 134.4Q454.2 134.4 457.8 132.8Q461.6 131 464 126.8Q466.4 122.6 466.8 115.2L475.2 123.2Q474.2 134.6 469.6 142.6Q465.2 150.4 457.2 154.6Q449.4 158.8 437.8 158.8ZM562.4 156L526 156L526 45.6L554.8 45.6L554.8 93.6L554.4 93.6Q554.4 70.4 564 57.2Q573.8 44 592 44L596.4 44L596.4 75.2L588 75.2Q575.8 75.2 569 81.8Q562.4 88.4 562.4 100.8L562.4 156ZM681.2 157.6L666.2 157.6Q648.2 157.6 637.4 153.2Q626.8 148.8 622 138.6Q617.2 128.4 617.2 111L617.4 16.8L651 16.8L650.8 112Q650.8 119.4 654.6 123.4Q658.6 127.2 666 127.2L681.2 127.2L681.2 157.6ZM681.2 72L601.2 72L601.2 45.6L681.2 45.6L681.2 72ZM736.4 156L702.8 156L702.8 44.8Q702.8 25.4 714 16Q725.2 6.4 747.2 6.4L757.6 6.4L757.6 33.2L746.4 33.2Q741.6 33.2 739 35.8Q736.4 38.4 736.4 43.2L736.4 156ZM757.6 73.2L690.8 73.2L690.8 46.8L757.6 46.8L757.6 73.2ZM814 156L777.6 156L777.6 45.6L814 45.6L814 156ZM814 72L765.6 72L765.6 45.6L814 45.6L814 72ZM792.6 36.8Q782.6 36.8 777.8 31.8Q773.2 26.6 773.2 18.6Q773.2 10.6 777.8 5.6Q782.6 0.4 792.4 0.4Q802.4 0.4 807 5.6Q811.6 10.6 811.6 18.6Q811.6 26.6 807 31.8Q802.4 36.8 792.6 36.8ZM877.2 156L840.8 156L840.8 45.6L869.6 45.6L869.6 93L868 93Q868 75.8 872.4 64.6Q876.8 53.2 885.4 47.6Q894.2 42 906.6 42L908.2 42Q927 42 937.2 54.6Q947.6 67 947.6 92.8L947.6 156L911.2 156L911.2 91.8Q911.2 84.2 906.6 79.4Q902.2 74.4 894.4 74.4Q886.6 74.4 881.8 79.4Q877.2 84.2 877.2 92.2L877.2 156ZM1017.4 159.6Q1005.8 159.6 996.2 155.4Q986.8 151.2 979.8 143.8Q973 136.2 969.2 126Q965.6 115.8 965.6 103.8L965.6 99Q965.6 87 969 76.8Q972.6 66.4 979.2 58.8Q985.8 51 995.2 46.8Q1004.6 42.4 1016.2 42.4Q1029.6 42.4 1039 48.4Q1048.6 54.2 1053.6 65.4Q1058.8 76.6 1059.2 92.6L1050.8 86.4L1050.8 10L1087.2 10L1087.2 156L1058.4 156L1058.4 111.2L1062.4 111.2Q1062 126 1056.4 137Q1050.8 147.8 1040.8 153.8Q1031 159.6 1017.4 159.6ZM1027.2 129.6Q1033.8 129.6 1039.2 126.6Q1044.8 123.6 1048.2 117.8Q1051.6 112 1051.6 103.8L1051.6 97Q1051.6 89 1048 83.6Q1044.6 78.2 1039 75.4Q1033.6 72.4 1027.2 72.4Q1020 72.4 1014.2 76.2Q1008.6 79.8 1005.2 86.4Q1002 92.8 1002 101.4Q1002 110 1005.2 116.4Q1008.6 122.6 1014.2 126.2Q1020 129.6 1027.2 129.6ZM1165.4 160Q1151.4 160 1140.6 155.2Q1129.8 150.4 1122.4 142.2Q1115 134 1111 123.8Q1107.2 113.6 1107.2 102.8L1107.2 98.8Q1107.2 87.6 1111 77.4Q1115 67 1122.2 59Q1129.6 51 1140.2 46.4Q1150.8 41.6 1164.2 41.6Q1182 41.6 1194.4 49.6Q1206.8 57.6 1213.4 70.8Q1220 83.8 1220 99.2L1220 110.8L1122.4 110.8L1122.4 91.2L1199 91.2L1186.4 100Q1186.4 90.6 1183.8 84.2Q1181.4 77.6 1176.4 74.2Q1171.6 70.8 1164.2 70.8Q1157 70.8 1151.6 74.2Q1146.4 77.4 1143.6 84.2Q1140.8 90.8 1140.8 101Q1140.8 110.2 1143.4 117Q1146 123.6 1151.4 127.2Q1156.8 130.8 1165.4 130.8Q1173 130.8 1177.8 128.2Q1182.8 125.6 1184.8 121.2L1218 121.2Q1215.6 132.4 1208.4 141.2Q1201.4 150 1190.4 155Q1179.6 160 1165.4 160ZM1275.6 156L1239.2 156L1239.2 45.6L1268 45.6L1268 93.6L1267.6 93.6Q1267.6 70.4 1277.2 57.2Q1287 44 1305.2 44L1309.6 44L1309.6 75.2L1301.2 75.2Q1289 75.2 1282.2 81.8Q1275.6 88.4 1275.6 100.8L1275.6 156Z" />
</svg>