<svg xmlns="http://www.w3.org/2000/svg" baseProfile="tiny-ps" width="1310" height="196"><path fill="#00acad" d="M37 196H0V46h29v47h-3q0-16 6-27 6-12 16-18 11-6 24-6 11 0 20 5 10 4 16 11 7 8 10 18 4 10 4 22v5q0 12-3 23-4 10-10 18-6 7-16 11-9 5-21 5-13 0-23-5-9-6-15-16t-6-26l9 11v72zm24-66q7 0 13-4 5-4 8-10 3-7 3-15 0-9-3-15-3-7-8-10-6-4-13-4t-12 3q-6 3-10 9-3 6-3 14v7q0 8 4 13 3 6 9 9t12 3zm131 30q-14 0-25-5-10-4-18-12-7-8-10-19-4-10-4-21v-4q0-11 4-22 4-10 11-18t18-13q10-4 24-4 15 0 27 6t18 16q7 11 8 24h-35q-1-6-5-11-5-5-13-5-7 0-11 4-5 4-7 10t-2 15q0 8 2 15 2 6 6 10 5 3 12 3 6 0 10-2l6-5q2-4 2-9h36q-1 14-8 24-7 11-19 17t-27 6zm109 36h-37V46h29v47h-3q1-16 6-27 6-12 17-18 10-6 23-6 11 0 21 5 9 4 15 11 7 8 10 18 4 10 4 22v5q0 12-3 23-3 10-10 18-6 7-16 11-9 5-21 5-13 0-22-5-10-6-16-16t-6-26l9 11v72zm24-66q7 0 13-4 5-4 8-10 4-7 4-15 0-9-4-15-3-7-8-10-5-4-13-4-6 0-12 3t-9 9q-4 6-4 14v7q0 8 4 13 4 6 9 9 6 3 12 3zm177 26h-29v-32h-6V89q0-8-4-11-3-4-11-4h-11l-16 1-15 1V45l11-1h27q17 0 29 5t18 15q7 10 7 25v67zm-64 3q-12 0-21-4-9-5-14-12-5-8-5-19 0-13 7-20 6-8 18-12 11-3 26-3h22v18h-22q-7 0-11 4t-4 10q0 6 4 10 4 3 11 3l9-1q4-2 6-6l3-12 8 8q-1 12-5 20-5 7-13 12-8 4-19 4zm124-3h-36V46h29v48h-1q0-24 10-37t28-13h4v31h-8q-12 0-19 7-7 6-7 19v55zm119 2h-15q-18 0-29-5-10-4-15-14-5-11-5-28V17h34v95q0 7 4 11t11 4h15v31zm0-86h-80V46h80v26zm55 84h-33V45q0-20 11-29 11-10 33-10h11v27h-12q-4 0-7 3-3 2-3 7v113zm22-83h-67V47h67v26zm56 83h-36V46h36v110zm0-84h-48V46h48v26zm-21-35q-10 0-15-5t-5-13q0-8 5-13 5-6 14-6 10 0 15 6 5 5 5 13t-5 13q-5 5-14 5zm84 119h-36V46h29v47h-2q0-17 4-28 5-12 13-17 9-6 22-6h1q19 0 29 13 11 12 11 38v63h-37V92q0-8-4-13-5-5-13-5-7 0-12 5t-5 13v64zm140 4q-11 0-21-5-9-4-16-11-7-8-11-18-3-10-3-22v-5q0-12 3-22 4-11 10-18 7-8 16-12 10-5 21-5 14 0 23 6 10 6 15 17 5 12 5 28l-8-7V10h36v146h-29v-45h4q0 15-6 26-5 11-15 17t-24 6zm10-30q7 0 12-3 6-3 9-9 4-6 4-14v-7q0-8-4-13-3-6-9-9-5-3-12-3t-13 4q-5 4-9 10-3 7-3 15 0 9 3 15 4 7 9 10 6 4 13 4zm138 30q-14 0-24-5-11-5-19-13-7-8-11-18t-4-21v-4q0-11 4-22 4-10 11-18 8-8 18-13 11-4 24-4 18 0 30 8 13 8 19 21 7 13 7 28v12h-98V91h77l-13 9q0-9-2-16-3-6-8-10-4-3-12-3-7 0-12 3-6 3-8 10-3 7-3 17 0 9 2 16 3 7 8 10 6 4 14 4t13-3q5-2 7-7h33q-2 11-10 20-7 9-18 14-10 5-25 5zm111-4h-37V46h29v48q0-24 9-37 10-13 28-13h5v31h-9q-12 0-19 7-6 6-6 19v55z"/></svg>